<?xml version="1.0" standalone="no"?>
<!DOCTYPE svg PUBLIC "-//W3C//DTD SVG 20010904//EN"
 "http://www.w3.org/TR/2001/REC-SVG-20010904/DTD/svg10.dtd">
<svg version="1.0" xmlns="http://www.w3.org/2000/svg"
 width="1024.000000pt" height="1024.000000pt" viewBox="0 0 1024.000000 1024.000000"
 preserveAspectRatio="xMidYMid meet">

<g transform="translate(0.000000,1024.000000) scale(0.100000,-0.100000)"
fill="#000000" stroke="none">
<path d="M2210 6862 c-47 -22 -193 -88 -325 -147 -542 -242 -731 -328 -744
-338 -20 -17 -30 -50 -19 -70 11 -21 9 -20 663 -310 433 -192 507 -221 550
-221 50 0 142 39 819 350 77 35 141 64 143 64 1 0 3 -119 3 -264 0 -237 2
-266 18 -285 26 -32 75 -38 101 -12 20 20 21 29 21 319 l0 297 47 25 c58 31
71 50 56 83 -9 19 -77 53 -340 170 -180 80 -440 196 -578 258 -138 62 -268
113 -290 116 -31 3 -59 -5 -125 -35z"/>
<path d="M1559 5979 c-2 -8 -6 -66 -8 -109 l-1 -45 -70 -33 c-129 -60 -224
-184 -256 -331 -20 -97 -20 -1196 1 -1294 41 -192 204 -351 399 -386 37 -7
228 -11 496 -11 361 0 446 3 495 15 70 19 153 55 198 87 l32 23 -610 5 -610 5
-57 27 c-128 60 -205 169 -219 311 -11 119 -10 1080 1 1160 16 107 68 192 152
248 23 16 46 29 49 29 3 0 11 -18 18 -41 42 -141 352 -274 706 -304 169 -14
403 28 601 106 125 50 185 98 203 164 15 56 15 375 -1 375 -6 0 -75 -29 -152
-64 -528 -240 -541 -246 -588 -246 -31 0 -125 37 -383 149 -314 138 -393 169
-396 160z"/>
<path d="M5065 5231 c-52 -22 -66 -90 -26 -123 34 -27 105 -25 125 4 47 67
-24 151 -99 119z"/>
<path d="M3750 5211 c-187 -61 -301 -231 -287 -428 10 -155 85 -271 213 -334
87 -43 210 -51 299 -20 l60 20 54 -55 54 -55 36 26 c82 58 79 49 31 102 -24
26 -48 51 -54 55 -6 4 2 21 18 42 132 173 104 438 -59 569 -79 63 -126 79
-240 83 -55 2 -111 0 -125 -5z m205 -150 c129 -60 184 -229 120 -369 l-26 -56
-37 43 -38 44 -52 -37 -52 -38 32 -39 c39 -49 30 -59 -52 -59 -146 1 -239 116
-228 284 3 39 13 88 23 110 23 48 77 104 119 122 45 20 143 17 191 -5z"/>
<path d="M5919 5213 c0 -5 0 -183 0 -398 l0 -390 71 -3 70 -3 0 98 c1 81 4
102 19 121 26 30 32 28 60 -16 13 -20 51 -74 84 -119 l61 -83 83 0 c75 0 100
8 74 25 -8 4 -202 266 -223 301 -5 7 34 58 103 133 l110 121 -88 0 -88 -1 -95
-111 -95 -112 -3 222 -2 222 -70 0 c-39 0 -70 -3 -71 -7z"/>
<path d="M6540 4820 l0 -400 265 0 265 0 0 65 0 65 -190 0 -190 0 0 105 0 105
170 0 170 0 0 65 0 65 -170 0 -170 0 0 95 0 95 190 0 190 0 0 70 0 70 -265 0
-265 0 0 -400z"/>
<path d="M8970 5218 c0 -2 -1 -182 -3 -401 l-2 -397 73 0 72 0 0 400 0 400
-70 0 c-38 0 -70 -1 -70 -2z"/>
<path d="M9249 5216 c-2 -2 -3 -182 -1 -400 l2 -396 70 0 70 0 0 400 0 400
-68 0 c-38 0 -71 -2 -73 -4z"/>
<path d="M5452 4994 c-62 -23 -144 -107 -165 -168 -21 -62 -22 -168 -1 -228
20 -61 75 -123 138 -156 44 -23 63 -27 141 -27 78 0 98 4 140 26 44 22 115 96
115 119 0 4 -27 18 -61 30 l-60 23 -27 -32 c-44 -52 -132 -60 -198 -16 -34 22
-64 89 -64 146 0 59 35 127 79 153 67 39 159 18 186 -43 11 -24 24 -23 102 6
l42 15 -16 32 c-22 45 -62 85 -108 109 -53 27 -182 33 -243 11z"/>
<path d="M7404 4991 c-22 -10 -50 -31 -62 -47 l-21 -29 -1 43 0 42 -70 0 -70
0 0 -290 0 -290 74 0 75 0 3 194 3 195 29 30 c56 58 156 49 191 -18 13 -26 22
-156 25 -373 0 -28 0 -28 71 -28 l71 0 -4 223 c-3 221 -3 222 -30 269 -52 87
-184 124 -284 79z"/>
<path d="M8091 4996 c-19 -7 -47 -27 -63 -46 l-28 -34 0 42 0 42 -70 0 -70 0
0 -290 0 -290 70 0 70 0 0 168 c0 139 3 173 18 201 25 50 63 74 127 79 l55 4
2 54 c0 30 1 60 2 67 1 17 -70 19 -113 3z"/>
<path d="M8447 4996 c-200 -72 -263 -346 -114 -497 79 -81 215 -111 329 -73
73 24 159 110 179 179 21 75 17 180 -11 238 -28 60 -106 130 -167 151 -56 19
-164 20 -216 2z m180 -127 c11 -4 34 -25 50 -45 25 -34 28 -45 28 -115 0 -92
-16 -122 -88 -157 -110 -56 -217 23 -217 159 0 133 103 205 227 158z"/>
<path d="M4360 4798 c0 -213 6 -254 43 -309 62 -94 249 -108 316 -23 21 27 31
22 31 -18 l0 -28 70 0 70 0 0 290 0 290 -75 0 -75 0 0 -185 c0 -199 -6 -227
-52 -259 -25 -18 -100 -21 -129 -6 -42 23 -49 58 -49 260 l0 190 -75 0 -75 0
0 -202z"/>
<path d="M5020 4710 l0 -290 75 0 75 0 0 290 0 290 -75 0 -75 0 0 -290z"/>
</g>
</svg>
